<mxfile host="app.diagrams.net" modified="2023-11-05T00:49:50.453Z" agent="Mozilla/5.0 (X11; Linux x86_64; rv:102.0) Gecko/20100101 Firefox/102.0" version="22.0.8" etag="v2QwmJ1PSeR8RMkiTiqz" type="github">
  <diagram name="Page-1" id="2aHHDPDhJwFda6DBkWUE">
    <mxGraphModel>
      <root>
        <mxCell id="0" />
        <mxCell id="1" parent="0" />
      </root>
    </mxGraphModel>
  </diagram>
</mxfile>
